<svg id="Layer_1" data-name="Layer 1" xmlns="http://www.w3.org/2000/svg" viewBox="0 0 1265 412.75"><defs><style>.cls-1{font-size:61.45px;}.cls-1,.cls-2{font-family:BerlinSansFB-Reg, Berlin Sans FB;}.cls-2{font-size:96.01px;}</style></defs><title>Logo</title><text class="cls-1" transform="translate(344.3 84.22)">The</text><text class="cls-2" transform="translate(344.54 172.78)">Galloping Goose</text><path d="M352.82,194.69c-16.91,3.05-17.33,2.63-20.74,4.15-6.54,2.92-5.79,4.81-15.21,11.07-8.94,5.92-9.5,4.15-20.75,11.06-11,6.74-15.37,11.46-18,15.21A65.45,65.45,0,0,0,274,243.1c-2.31,4.6-2,5.64-4.14,9.68-.94,1.77-1,1.59-5.54,8.3-5.27,7.8-4.37,6.86-5.53,8.29-4.06,5.06-6.67,6.22-6.91,9.68-.12,1.59.38,2.18,0,4.15-.44,2.26-1.46,3.49-2.77,5.53A43.31,43.31,0,0,0,245,297c-1.37,3.85-.63,5-1.38,8.3-1.39,6-5,6.83-9.68,13.83-4.42,6.62-6.85,14.35-5.53,15.21s7.56-5,11.06-8.3c2.17-2.05,3.27-3.3,5.53-4.14,3.35-1.25,4.77.06,6.92-1.39s1.51-3.3,4.15-6.91a19.31,19.31,0,0,1,4.14-4.15c3.54-2.57,5.26-1.69,11.07-4.15,4.67-2,5.52-3.38,6.91-2.77,2.45,1.07,3.67,7.05,1.39,11.07-2.52,4.43-7.29,2.95-15.22,8.3-3.78,2.55-7.9,5.33-8.29,9.68-.44,4.8,3.76,10.53,8.29,11.06,5.57.66,6.94-7.07,16.6-9.68,1.62-.44,8.24-2.23,13.83,1.38a14.67,14.67,0,0,1,5.53,6.92c1.61,4.3-.2,6.19,0,13.83.1,3.7.27,10.29,2.77,11.06,2.17.67,3.62-3.85,9.68-5.53,1.57-.44,4.29-1.19,6.91,0,2.39,1.08,2.86,2.94,4.15,2.76,1.88-.25,1.44-4.24,4.15-6.91,3.54-3.49,9.57-1.87,9.68-2.77s-7.24-1.76-15.21-5.53c-6.59-3.11-13.15-8-12.45-9.68.62-1.46,6.43,1,16.6,1.38,4.52.18,13,.52,22.12-2.76,6-2.16,10.44-5.59,19.37-12.45,12.15-9.34,10.33-10.13,15.21-12.45,11.32-5.35,23.7-2.32,33.19,0a84.6,84.6,0,0,1,15.21,5.54c10.06,4.41,15.12,6.71,16.6,11.06,1.12,3.3,0,6.27,2.76,9.68.7.88,2.16,2.71,4.15,2.77,2.86.08,3.47-3.56,6.92-5.53,5.23-3,9.15,2.37,15.21,0,3.55-1.4,2-3.18,9.68-9.69a40.27,40.27,0,0,1,9.73-6l.55-.22c1.49-.53,2-.43,2.17-.72.38-.56-.66-2.11-1.39-2.77-2.67-2.41-8.72.37-15.21,2.77-11.11,4.11-16.67,6.17-22.13,5.53-2.25-.26-3.3-.79-16.59-9.68-15.85-10.59-18.3-12.47-20.75-16.59a29.73,29.73,0,0,1-4.15-13.83c-.08-2.54-.33-9.74,4.15-15.22,3.63-4.42,6.91-3.52,12.45-6.91,10.95-6.69,14.34-20.07,15.21-23.51,3.61-14.21-2.41-22.54,1.39-24.89,4-2.48,11.39,6.19,33.19,16.59,1.15.55,14.65,6.92,16.59,4.15,1.27-1.8-3.29-6.15-1.38-9.68C502,222.86,505,222.56,505,221c-.05-1.06-1.4-1.23-2.77-2.77-2.13-2.39-3.05-6.67-1.38-8.29,1.23-1.2,3.79-.89,5.53,0,2.91,1.48,2.32,4,5.53,8.29,1.48,2,1.32,1.07,6.92,6.92,2.83,3,3.62,4,4.15,5.53.19.58.59,2,1.38,4.15s1,2.52,1.38,2.77c1.24.77,2.84-.41,5.53-1.39,2.45-.89,4.4-1.05,8.3-1.38a36.92,36.92,0,0,1,8.3,0c5.18.67,6.13,2.17,8.3,1.38,3.35-1.21,5.55-6.39,4.15-8.3-1.66-2.23-6.72,2.22-12.45,0-2.94-1.13-3-2.86-11.06-13.82-4.45-6.08-5.68-7.28-6.92-8.3a29.08,29.08,0,0,0-11.06-5.53c-1.64-.46-7.13-1.86-20.75,0-12,1.64-11.12,3.2-15.21,2.76-11.3-1.21-11.64-12.42-23.51-16.59-10.78-3.79-25.26.28-33.19,8.29-6.46,6.53-6.14,13.21-11.06,13.83-4.67.59-6.37-5.23-18-11.06A53.92,53.92,0,0,0,386,193.31a56.31,56.31,0,0,0-15.21-1.38C366.05,192.08,364.44,192.6,352.82,194.69Z" transform="translate(-228 -184.97)"/></svg>